<svg width="52" height="44" viewBox="0 0 52 44" fill="none" xmlns="http://www.w3.org/2000/svg">
<path d="M18.1632 18.5711H33.6734V14.6531H18.1671C18.1671 15.0534 18.1632 18.608 18.1632 18.5711Z" fill="#FBCB4A"/>
<path d="M44.4203 10.5L34.9429 6.5C34.32 6.19574 33.6404 6.02543 32.948 6H19.0519C18.359 6.02548 17.679 6.19579 17.0556 6.5L7.57953 10.5C7.12108 10.7338 6.73753 11.0923 6.47271 11.5344C6.2079 11.9765 6.0725 12.4843 6.08201 12.9999V29.0024C6.08201 29.5024 6.08201 30.0024 6.58075 30.5024L9.57449 33.5023C10.0732 34.0023 10.4476 34.0023 11.0707 34.0023H17.9261C17.9261 34.4322 17.9261 38.0386 17.9261 37.9997H34.132V33.9971H17.9391V30.0024H10.572C10.0732 30.0024 10.0732 29.5024 10.0732 29.5024V10.5C10.0732 10.5 10.0732 9.99996 10.572 9.99996H41.4292C41.9279 9.99996 41.9279 10.5 41.9279 10.5V29.5024C41.9279 29.5024 41.9279 30.0024 41.4292 30.0024H34.1359V34.0023H40.9304C41.5535 34.0023 41.9279 34.0023 42.4266 33.5023L45.4191 30.5024C45.9178 30.0024 45.9178 29.5024 45.9178 29.0024V12.9999C45.9272 12.4844 45.7917 11.9766 45.5269 11.5345C45.2621 11.0924 44.8787 10.7339 44.4203 10.5Z" fill="#FBCB4A"/>
</svg>
